# xmcd
#
# Track frame offsets: 
#        182
#        10622
#        35662
#        57215
#        79457
#        110882
#        133375
#        150777
#        170432
#        204170
#        230202
#
# Disc length: 3679 seconds
#
# Revision: 7
# Processed by: cddbd v1.5.2PL0 Copyright (c) Steve Scherf et al.
# Submitted via: ExactAudioCopy v1.0b1
#
DISCID=900e5d0b
DTITLE=Bizet - Carmen (Auszüge) (Solti, Troyanos, Domingo, van Dam, te
DTITLE=Kanawa, London PhO, John Alldis Choir)
DYEAR=1976
DGENRE=Oper
TTITLE0=Prelude
TTITLE1=Mas nous ne voyons pas la Carmencita!
TTITLE2=Près des ramparts de Séville
TTITLE3=Les tringles des sistres tintient
TTITLE4=Vivat, vivat le torero!... Votre toast
TTITLE5=Nous avons en tête une affaire!
TTITLE6=La fleur que tu m'avais jetée
TTITLE7=Non! tu ne m'aimes pas!
TTITLE8=Melons! Coupons!... En vain pour éviter les résponses amères
TTITLE9=Je dis que rien ne m'epouvante
TTITLE10=C'est toi! C'est moi!
EXTD=Classics album!
EXTT0=
EXTT1=
EXTT2=
EXTT3=
EXTT4=
EXTT5=
EXTT6=
EXTT7=
EXTT8=
EXTT9=
EXTT10=
PLAYORDER=
